<svg width="320" height="68" viewBox="0 0 320 68" fill="none" xmlns="http://www.w3.org/2000/svg">
<rect width="320" height="68" fill="white"/>
<path d="M106 17L108.465 26.1044L115.461 19.7781L112.613 28.77L121.919 27.2302L114.661 33.2547L123.322 36.9905L113.959 38.1349L119.226 45.9601L110.731 41.861L110.93 51.2911L106 43.25L101.07 51.2911L101.269 41.861L92.7744 45.9601L98.0407 38.1349L88.6781 36.9905L97.3391 33.2547L90.0814 27.2302L99.3872 28.77L96.5388 19.7781L103.535 26.1044L106 17Z" fill="#598D66"/>
<path d="M132.98 42V27.8H135.74V42H132.98ZM148.183 42H145.503V36.12C145.503 35.28 145.356 34.6667 145.063 34.28C144.769 33.8933 144.363 33.7 143.843 33.7C143.483 33.7 143.116 33.7933 142.743 33.98C142.383 34.1667 142.056 34.4267 141.763 34.76C141.469 35.08 141.256 35.4533 141.123 35.88V42H138.443V31.52H140.863V33.46C141.249 32.8067 141.809 32.2933 142.543 31.92C143.276 31.5333 144.103 31.34 145.023 31.34C145.676 31.34 146.209 31.46 146.623 31.7C147.036 31.9267 147.356 32.24 147.583 32.64C147.809 33.0267 147.963 33.4667 148.043 33.96C148.136 34.4533 148.183 34.9533 148.183 35.46V42ZM157.673 42L154.613 37.48L153.193 38.88V42H150.513V27.4H153.193V36.24L157.413 31.54H160.253L156.353 35.98L160.533 42H157.673ZM161.605 42V39.12H163.805V42H161.605ZM183.162 27.8V42H180.422V35.94H173.982V42H171.222V27.8H173.982V33.54H180.422V27.8H183.162ZM190.529 42.2C189.382 42.2 188.395 41.9533 187.569 41.46C186.755 40.9533 186.129 40.2867 185.689 39.46C185.249 38.6333 185.029 37.74 185.029 36.78C185.029 35.8067 185.249 34.9067 185.689 34.08C186.142 33.2533 186.775 32.5933 187.589 32.1C188.415 31.5933 189.395 31.34 190.529 31.34C191.662 31.34 192.635 31.5933 193.449 32.1C194.275 32.5933 194.909 33.2533 195.349 34.08C195.789 34.9067 196.009 35.8067 196.009 36.78C196.009 37.74 195.789 38.6333 195.349 39.46C194.909 40.2867 194.275 40.9533 193.449 41.46C192.635 41.9533 191.662 42.2 190.529 42.2ZM187.789 36.78C187.789 37.3933 187.909 37.94 188.149 38.42C188.389 38.8867 188.715 39.2533 189.129 39.52C189.542 39.7867 190.009 39.92 190.529 39.92C191.035 39.92 191.495 39.7867 191.909 39.52C192.322 39.24 192.649 38.8667 192.889 38.4C193.142 37.92 193.269 37.3733 193.269 36.76C193.269 36.16 193.142 35.6267 192.889 35.16C192.649 34.68 192.322 34.3067 191.909 34.04C191.495 33.76 191.035 33.62 190.529 33.62C190.009 33.62 189.542 33.76 189.129 34.04C188.715 34.3067 188.389 34.68 188.149 35.16C187.909 35.6267 187.789 36.1667 187.789 36.78ZM197.718 38.08V31.52H200.398V37.5C200.398 39.1133 200.978 39.92 202.138 39.92C202.658 39.92 203.158 39.7667 203.638 39.46C204.131 39.14 204.531 38.66 204.838 38.02V31.52H207.518V39C207.518 39.2933 207.564 39.5 207.658 39.62C207.751 39.7267 207.918 39.7933 208.158 39.82V42C207.891 42.0533 207.664 42.0867 207.478 42.1C207.304 42.1133 207.144 42.12 206.998 42.12C206.518 42.12 206.124 42.0133 205.818 41.8C205.524 41.5733 205.351 41.2667 205.298 40.88L205.238 40.04C204.771 40.76 204.171 41.3 203.438 41.66C202.704 42.02 201.898 42.2 201.018 42.2C199.938 42.2 199.118 41.8533 198.558 41.16C197.998 40.4533 197.718 39.4267 197.718 38.08ZM214.041 42.2C213.148 42.2 212.294 42.0533 211.481 41.76C210.668 41.4667 209.968 41.0333 209.381 40.46L210.341 38.72C210.968 39.2267 211.581 39.6 212.181 39.84C212.781 40.08 213.368 40.2 213.941 40.2C214.461 40.2 214.874 40.1067 215.181 39.92C215.501 39.7333 215.661 39.4533 215.661 39.08C215.661 38.6933 215.468 38.4333 215.081 38.3C214.694 38.1533 214.154 37.9733 213.461 37.76C212.688 37.52 212.041 37.2733 211.521 37.02C211.001 36.7667 210.608 36.46 210.341 36.1C210.088 35.74 209.961 35.2733 209.961 34.7C209.961 33.6733 210.348 32.8533 211.121 32.24C211.894 31.6267 212.921 31.32 214.201 31.32C214.948 31.32 215.654 31.44 216.321 31.68C216.988 31.9067 217.594 32.28 218.141 32.8L217.061 34.5C216.034 33.7 215.041 33.3 214.081 33.3C213.654 33.3 213.274 33.38 212.941 33.54C212.621 33.7 212.461 33.98 212.461 34.38C212.461 34.7533 212.614 35.02 212.921 35.18C213.241 35.34 213.721 35.5133 214.361 35.7C215.188 35.9533 215.888 36.2 216.461 36.44C217.048 36.68 217.488 36.9867 217.781 37.36C218.088 37.7333 218.241 38.24 218.241 38.88C218.241 39.92 217.861 40.7333 217.101 41.32C216.341 41.9067 215.321 42.2 214.041 42.2ZM224.924 42.2C223.79 42.2 222.81 41.9533 221.984 41.46C221.17 40.9667 220.537 40.3133 220.084 39.5C219.63 38.6733 219.404 37.78 219.404 36.82C219.404 35.8333 219.624 34.9267 220.064 34.1C220.517 33.26 221.157 32.5933 221.984 32.1C222.81 31.5933 223.797 31.34 224.944 31.34C226.09 31.34 227.07 31.5933 227.884 32.1C228.697 32.5933 229.317 33.2533 229.744 34.08C230.184 34.8933 230.404 35.7733 230.404 36.72C230.404 37.0667 230.384 37.3667 230.344 37.62H222.244C222.31 38.4333 222.61 39.0733 223.144 39.54C223.69 40.0067 224.317 40.24 225.024 40.24C225.557 40.24 226.057 40.1133 226.524 39.86C227.004 39.5933 227.33 39.2467 227.504 38.82L229.804 39.46C229.417 40.26 228.797 40.92 227.944 41.44C227.09 41.9467 226.084 42.2 224.924 42.2ZM222.184 35.92H227.664C227.584 35.1333 227.284 34.5 226.764 34.02C226.257 33.5267 225.637 33.28 224.904 33.28C224.184 33.28 223.564 33.5267 223.044 34.02C222.537 34.5 222.25 35.1333 222.184 35.92Z" fill="#598D66"/>
</svg>
